<svg xmlns="http://www.w3.org/2000/svg" viewBox="0 0 435.97 173.13">
  <path fill="#5F6368" d="M206.2,84.58v50.75H190.1V10h42.7a38.61,38.61,0,0,1,27.65,10.85A34.88,34.88,0,0,1,272,47.3a34.72,34.72,0,0,1-11.55,26.6q-11.2,10.68-27.65,10.67H206.2Zm0-59.15V69.18h27a21.28,21.28,0,0,0,15.93-6.48,21.36,21.36,0,0,0,0-30.63,20.77,20.77,0,0,0-15.93-6.65h-27Z"/>
  <path fill="#5F6368" d="M309.1,46.78q17.85,0,28.18,9.54t10.32,26.16v52.85H332.17v-11.9h-.7q-10,14.63-26.6,14.62a36.2,36.2,0,0,1-24.92-9.1,29,29,0,0,1-10.33-22.75q0-14.52,11-23.1t29.22-8.57q15.57,0,25.55,5.73v-4a19.91,19.91,0,0,0-7.35-15.58,25.64,25.64,0,0,0-17.33-6.48q-14.88,0-23.63,12.49l-14.18-8.93Q284.15,46.78,309.1,46.78Zm-22.4,60.55a14.14,14.14,0,0,0,5.95,11.55,21.57,21.57,0,0,0,13.65,4.73,28,28,0,0,0,19.6-8.05q8.75-8.05,8.75-18.73-8.05-6.58-22.4-6.58-10.43,0-17.5,5.25T286.7,107.33Z"/>
  <path fill="#5F6368" d="M436,49.58,382.24,173.13H365.34l19.95-43.23L350.84,49.58h17.85l25.55,61.6h.35l24.85-61.6Z"/>
  <path fill="#4285F4" d="M141.14,73.64A85.79,85.79,0,0,0,140,59.25H72v27.17h38.89a33.33,33.33,0,0,1-14.38,21.88v17.93H118.1C132.09,112.57,141.14,94.75,141.14,73.64Z"/>
  <path fill="#34A853" d="M72,144c19.43,0,35.79-6.38,47.72-17.38l-23.09-17.93c-6.49,4.45-14.81,6.95-24.63,6.95-18.86,0-34.85-12.74-40.57-29.9H7.67v18.55A72,72,0,0,0,72,144Z"/>
  <path fill="#FBBC04" d="M31.43,85.74a43.14,43.14,0,0,1,0-27.48V39.71H7.67a72,72,0,0,0,0,64.58Z"/>
  <path fill="#EA4335" d="M72,28.36a39.07,39.07,0,0,1,27.6,10.78l20.47-20.47A69.18,69.18,0,0,0,72,0,72,72,0,0,0,7.67,39.71L31.43,58.26C37.15,41.1,53.14,28.36,72,28.36Z"/>
</svg>
